<?xml version="1.0" encoding="UTF-8" standalone="no"?>
<svg
   xmlns:dc="http://purl.org/dc/elements/1.1/"
   xmlns:cc="http://creativecommons.org/ns#"
   xmlns:rdf="http://www.w3.org/1999/02/22-rdf-syntax-ns#"
   xmlns:svg="http://www.w3.org/2000/svg"
   xmlns="http://www.w3.org/2000/svg"
   xmlns:sodipodi="http://sodipodi.sourceforge.net/DTD/sodipodi-0.dtd"
   xmlns:inkscape="http://www.inkscape.org/namespaces/inkscape"
   sodipodi:docname="nautical-gentoo.svg"
   inkscape:version="1.0 (4035a4fb49, 2020-05-01)"
   id="svg8"
   version="1.1"
   viewBox="0 0 70.06292 52.5"
   height="52.5mm"
   width="70.06292mm">
  <defs
     id="defs2" />
  <sodipodi:namedview
     inkscape:window-maximized="1"
     inkscape:window-y="0"
     inkscape:window-x="0"
     inkscape:window-height="1035"
     inkscape:window-width="1920"
     fit-margin-bottom="0"
     fit-margin-right="0"
     fit-margin-left="0"
     fit-margin-top="0"
     inkscape:guide-bbox="true"
     showguides="false"
     showgrid="false"
     inkscape:document-rotation="0"
     inkscape:current-layer="layer1"
     inkscape:document-units="mm"
     inkscape:cy="88.747018"
     inkscape:cx="155.53929"
     inkscape:zoom="2.1179849"
     inkscape:pageshadow="2"
     inkscape:pageopacity="0.0"
     borderopacity="1.0"
     bordercolor="#666666"
     pagecolor="#ffffff"
     id="base">
    <inkscape:grid
       originy="-7.7928819e-07"
       originx="0"
       id="grid839"
       type="xygrid" />
    <sodipodi:guide
       inkscape:color="rgb(0,0,255)"
       inkscape:locked="false"
       inkscape:label=""
       id="guide1656"
       orientation="-1,0"
       position="69.999997,52.499998" />
    <sodipodi:guide
       inkscape:color="rgb(0,0,255)"
       inkscape:locked="false"
       inkscape:label=""
       id="guide1658"
       orientation="-1,0"
       position="0,52.499998" />
    <sodipodi:guide
       inkscape:color="rgb(0,0,255)"
       inkscape:locked="false"
       inkscape:label=""
       id="guide1660"
       orientation="0,1"
       position="0,52.499998" />
    <sodipodi:guide
       inkscape:color="rgb(0,0,255)"
       inkscape:locked="false"
       inkscape:label=""
       id="guide1662"
       orientation="-1,0"
       position="34.999999,52.499998" />
    <sodipodi:guide
       inkscape:color="rgb(0,0,255)"
       inkscape:locked="false"
       inkscape:label=""
       id="guide1664"
       orientation="-1,0"
       position="17.499999,52.499998" />
    <sodipodi:guide
       inkscape:color="rgb(0,0,255)"
       inkscape:locked="false"
       inkscape:label=""
       id="guide1666"
       orientation="-1,0"
       position="52.499998,52.499998" />
    <sodipodi:guide
       inkscape:color="rgb(0,0,255)"
       inkscape:locked="false"
       inkscape:label=""
       id="guide1668"
       orientation="0,1"
       position="0,34.999999" />
    <sodipodi:guide
       inkscape:color="rgb(0,0,255)"
       inkscape:locked="false"
       inkscape:label=""
       id="guide1670"
       orientation="0,1"
       position="0,17.5" />
    <sodipodi:guide
       inkscape:color="rgb(0,0,255)"
       inkscape:locked="false"
       inkscape:label=""
       id="guide1672"
       orientation="-1,0"
       position="8.7499997,52.499998" />
    <sodipodi:guide
       inkscape:color="rgb(0,0,255)"
       inkscape:locked="false"
       inkscape:label=""
       id="guide1674"
       orientation="-1,0"
       position="26.249999,52.499998" />
    <sodipodi:guide
       inkscape:color="rgb(0,0,255)"
       inkscape:locked="false"
       inkscape:label=""
       id="guide1676"
       orientation="-1,0"
       position="43.749998,52.499998" />
    <sodipodi:guide
       inkscape:color="rgb(0,0,255)"
       inkscape:locked="false"
       inkscape:label=""
       id="guide1678"
       orientation="-1,0"
       position="61.249998,52.499998" />
    <sodipodi:guide
       inkscape:color="rgb(0,0,255)"
       inkscape:locked="false"
       inkscape:label=""
       id="guide1707"
       orientation="0,1"
       position="0,43.749999" />
  </sodipodi:namedview>
  <metadata
     id="metadata5">
    <rdf:RDF>
      <cc:Work
         rdf:about="">
        <dc:format>image/svg+xml</dc:format>
        <dc:type
           rdf:resource="http://purl.org/dc/dcmitype/StillImage" />
        <dc:title></dc:title>
      </cc:Work>
    </rdf:RDF>
  </metadata>
  <g
     id="layer1"
     inkscape:groupmode="layer"
     inkscape:label="Ebene 1">
    <text
       id="text835"
       y="78.403595"
       x="4.0682983"
       style="font-style:normal;font-weight:normal;font-size:14.1111px;line-height:1;font-family:sans-serif;fill:#00112b;fill-opacity:1;stroke:none;stroke-width:0.264583"
       xml:space="preserve"><tspan
         id="tspan1775"
         style="font-style:normal;font-variant:normal;font-weight:normal;font-stretch:normal;font-size:14.1111px;font-family:'Fira Sans';-inkscape-font-specification:'Fira Sans';fill:#00112b;fill-opacity:1;stroke-width:0.264583"
         y="78.403595"
         x="4.0682983"
         sodipodi:role="line" /></text>
    <g
       id="g1823">
      <g
         id="g1799">
        <path
           sodipodi:nodetypes="cacacacacccc"
           id="path1705"
           d="M 0,7.7928821e-7 C 0,7.7928821e-7 5.4890676,4.375 8.7499999,4.375 12.010932,4.375 17.5,7.7928821e-7 17.5,7.7928821e-7 17.5,7.7928821e-7 22.989068,4.3750001 26.25,4.375 29.510932,4.3749999 34.999998,7.7928821e-7 34.999998,7.7928821e-7 34.999998,7.7928821e-7 40.489066,4.375 43.749999,4.375 47.010932,4.375 52.5,7.7928821e-7 52.5,7.7928821e-7 52.5,7.7928821e-7 57.989066,4.3749998 61.249998,4.375 64.510931,4.3750002 69.999999,7.7928821e-7 69.999999,7.7928821e-7 V 35.000001 H 0 V 7.7928821e-7"
           style="fill:#00112b;stroke:none;stroke-width:0.264583px;stroke-linecap:butt;stroke-linejoin:miter;stroke-opacity:1" />
        <path
           style="fill:#ffffff;stroke:none;stroke-width:0.264583px;stroke-linecap:butt;stroke-linejoin:miter;stroke-opacity:1"
           d="m 0.06291781,4.375 c 0,0 5.48906739,4.375 8.75000009,4.375 3.2609331,0 8.7500031,-4.375 8.7500031,-4.375 0,0 5.489068,4.375 8.75,4.375 3.260932,0 8.749999,-4.375 8.749999,-4.375 0,0 5.489067,4.375 8.750001,4.375 3.260931,0 8.750001,-4.375 8.750001,-4.375 0,0 5.489067,4.375 8.749998,4.375 3.260932,0 8.750001,-4.375 8.750001,-4.375 V 39.375001 H 0.06291781 V 4.375"
           id="path1705-7"
           sodipodi:nodetypes="cacacacacccc" />
        <path
           sodipodi:nodetypes="cacacacacccc"
           id="path1705-7-1"
           d="m 0,8.75 c 0,0 5.4890678,4.375 8.7500005,4.375 3.2609325,0 8.7500025,-4.375 8.7500025,-4.375 0,0 5.489068,4.375 8.750001,4.375 3.26093,0 8.749997,-4.375 8.749997,-4.375 0,0 5.489067,4.375 8.750001,4.375 3.260932,0 8.750001,-4.375 8.750001,-4.375 0,0 5.48907,4.375 8.749999,4.375 3.260934,0 8.750001,-4.375 8.750001,-4.375 V 43.750001 H 0 V 8.75"
           style="fill:#00112b;stroke:none;stroke-width:0.264583px;stroke-linecap:butt;stroke-linejoin:miter;stroke-opacity:1" />
        <path
           style="fill:#00112b;stroke:none;stroke-width:0.264583px;stroke-linecap:butt;stroke-linejoin:miter;stroke-opacity:1"
           d="m 0,8.75 c 0,0 5.489067,4.374999 8.75,4.374999 3.260932,0 8.75,-4.374999 8.75,-4.374999 0,0 5.489068,4.374999 8.75,4.374999 3.260932,0 8.749999,-4.374999 8.749999,-4.374999 0,0 5.489067,4.374999 8.750001,4.374999 3.260931,0 8.750001,-4.374999 8.750001,-4.374999 0,0 5.489067,4.374999 8.749998,4.374999 C 64.510931,13.124999 70,8.75 70,8.75 V 43.750001 H 0 V 8.75"
           id="path1705-8"
           sodipodi:nodetypes="cacacacacccc" />
        <path
           sodipodi:nodetypes="cacacacacccc"
           id="path1705-7-6"
           d="m 0.062917,13.124999 c 0,0 5.489068,4.375 8.750001,4.375 3.260933,0 8.750003,-4.375 8.750003,-4.375 0,0 5.489068,4.375 8.75,4.375 3.260931,0 8.749998,-4.375 8.749998,-4.375 0,0 5.489067,4.375 8.750001,4.375 3.260932,0 8.750001,-4.375 8.750001,-4.375 0,0 5.489067,4.375 8.749999,4.375 3.260934,0 8.750001,-4.375 8.750001,-4.375 V 48.125001 H 0.062917 V 13.124999"
           style="fill:#ffffff;stroke:none;stroke-width:0.264583px;stroke-linecap:butt;stroke-linejoin:miter;stroke-opacity:1" />
        <path
           style="fill:#00112b;stroke:none;stroke-width:0.264583px;stroke-linecap:butt;stroke-linejoin:miter;stroke-opacity:1"
           d="m 0,17.499999 c 0,0 5.489067,4.375 8.75,4.375 3.260933,0 8.750003,-4.375 8.750003,-4.375 0,0 5.489068,4.375 8.750001,4.375 3.26093,0 8.749997,-4.375 8.749997,-4.375 0,0 5.489067,4.375 8.750001,4.375 3.260932,0 8.750001,-4.375 8.750001,-4.375 0,0 5.48907,4.375 8.749999,4.375 3.260934,0 8.750001,-4.375 8.750001,-4.375 V 52.5 H 0 V 17.499999"
           id="path1705-7-1-1"
           sodipodi:nodetypes="cacacacacccc" />
      </g>
      <g
         id="g1809"
         transform="translate(0,6.3723395)">
        <text
           id="text1791"
           y="36.78046"
           x="14.614511"
           style="font-style:normal;font-weight:normal;font-size:10.5833px;line-height:1.25;font-family:sans-serif;fill:#ffffff;fill-opacity:1;stroke:none;stroke-width:0.264583"
           xml:space="preserve"><tspan
             style="font-style:normal;font-variant:normal;font-weight:500;font-stretch:normal;font-size:12.7px;font-family:'Fira Sans';-inkscape-font-specification:'Fira Sans Medium';fill:#ffffff;stroke-width:0.264583"
             y="36.78046"
             x="14.614511"
             id="tspan1789"
             sodipodi:role="line">NAUTICAL</tspan></text>
        <text
           id="text1803"
           y="45.93716"
           x="23.390366"
           style="font-style:normal;font-weight:normal;font-size:10.5833px;line-height:1.25;font-family:sans-serif;fill:#ffffff;fill-opacity:1;stroke:none;stroke-width:0.264583"
           xml:space="preserve"><tspan
             style="font-style:normal;font-variant:normal;font-weight:500;font-stretch:normal;font-size:12.7px;font-family:'Fira Sans';-inkscape-font-specification:'Fira Sans Medium';fill:#ffffff;stroke-width:0.264583"
             y="45.93716"
             x="23.390366"
             id="tspan1801"
             sodipodi:role="line">GENTOO</tspan></text>
      </g>
    </g>
  </g>
</svg>
